<svg width="128" height="128" viewBox="0 0 128 128" fill="none" xmlns="http://www.w3.org/2000/svg">
<g clip-path="url(#clip0_1_2)">
<path d="M73.5 69.5C73.5 81.4734 71.8815 92.2925 69.2787 100.101C67.9764 104.008 66.4368 107.133 64.7513 109.272C63.0615 111.416 61.2832 112.5 59.5 112.5C57.7168 112.5 55.9385 111.416 54.2487 109.272C52.5632 107.133 51.0236 104.008 49.7213 100.101C47.1185 92.2925 45.5 81.4734 45.5 69.5C45.5 57.5266 47.1185 46.7075 49.7213 38.899C51.0236 34.9921 52.5632 31.8665 54.2487 29.7279C55.9385 27.5837 57.7168 26.5 59.5 26.5C61.2832 26.5 63.0615 27.5837 64.7513 29.7279C66.4368 31.8665 67.9764 34.9921 69.2787 38.899C71.8815 46.7075 73.5 57.5266 73.5 69.5Z" stroke="#992913" stroke-opacity="0.933333"/>
<path d="M73.25 69.5C73.25 82.2865 71.6329 93.8327 69.0371 102.157C67.7377 106.324 66.2061 109.641 64.5404 111.901C62.8636 114.175 61.1516 115.25 59.5 115.25C57.8484 115.25 56.1364 114.175 54.4596 111.901C52.7939 109.641 51.2623 106.324 49.9629 102.157C47.3671 93.8327 45.75 82.2865 45.75 69.5C45.75 56.7135 47.3671 45.1673 49.9629 36.8428C51.2623 32.6761 52.7939 29.3587 54.4596 27.0993C56.1364 24.8249 57.8484 23.75 59.5 23.75C61.1516 23.75 62.8636 24.8249 64.5404 27.0993C66.2061 29.3587 67.7377 32.6761 69.0371 36.8428C71.6329 45.1673 73.25 56.7135 73.25 69.5Z" stroke="#6B0C0E" stroke-width="1.5"/>
<line x1="10" y1="62.5" x2="33" y2="62.5" stroke="#6B0C0E"/>
<line x1="82" y1="62.5" x2="104" y2="62.5" stroke="#6B0C0E"/>
<path d="M26.5 11L9.5 66H32.5L29.5 23.5V116" stroke="#992913" stroke-width="1.5"/>
<path d="M98 11L81 66H104L101 23.5V116" stroke="#992913" stroke-width="1.5"/>
<path d="M81.5 65H87H92.5H104" stroke="#992913" stroke-width="2"/>
<path d="M10 65H15.5H21H32.5" stroke="#992913" stroke-width="2"/>
<path d="M75.5 71.5C75.5 83.4734 73.8815 94.2925 71.2787 102.101C69.9764 106.008 68.4368 109.133 66.7513 111.272C65.0615 113.416 63.2832 114.5 61.5 114.5C59.7168 114.5 57.9385 113.416 56.2487 111.272C54.5632 109.133 53.0236 106.008 51.7213 102.101C49.1185 94.2925 47.5 83.4734 47.5 71.5C47.5 59.5266 49.1185 48.7075 51.7213 40.899C53.0236 36.9921 54.5632 33.8665 56.2487 31.7279C57.9385 29.5837 59.7168 28.5 61.5 28.5C63.2832 28.5 65.0615 29.5837 66.7513 31.7279C68.4368 33.8665 69.9764 36.9921 71.2787 40.899C73.8815 48.7075 75.5 59.5266 75.5 71.5Z" stroke="#043C41"/>
<path d="M75.25 71.5C75.25 84.2865 73.6329 95.8327 71.0371 104.157C69.7377 108.324 68.2061 111.641 66.5404 113.901C64.8636 116.175 63.1516 117.25 61.5 117.25C59.8484 117.25 58.1364 116.175 56.4596 113.901C54.7939 111.641 53.2623 108.324 51.9629 104.157C49.3671 95.8327 47.75 84.2865 47.75 71.5C47.75 58.7135 49.3671 47.1673 51.9629 38.8428C53.2623 34.6761 54.7939 31.3587 56.4596 29.0993C58.1364 26.8249 59.8484 25.75 61.5 25.75C63.1516 25.75 64.8636 26.8249 66.5404 29.0993C68.2061 31.3587 69.7377 34.6761 71.0371 38.8428C73.6329 47.1673 75.25 58.7135 75.25 71.5Z" stroke="#429EA6" stroke-width="1.5"/>
<line x1="12" y1="64.5" x2="35" y2="64.5" stroke="#043C41"/>
<line x1="84" y1="64.5" x2="106" y2="64.5" stroke="#043C41"/>
<path d="M28.5 13L11.5 68H34.5L31.5 25.5V118" stroke="#429EA6" stroke-width="1.5"/>
<path d="M100 13L83 68H106L103 25.5V118" stroke="#429EA6" stroke-width="1.5"/>
<path d="M83.5 67H89H94.5H106" stroke="#429EA6" stroke-width="2"/>
<path d="M12 67H17.5H23H34.5" stroke="#429EA6" stroke-width="2"/>
</g>
<defs>
<clipPath id="clip0_1_2">
<rect width="128" height="128" fill="white"/>
</clipPath>
</defs>
</svg>
